<?xml version="1.0"?>
<svg xmlns="http://www.w3.org/2000/svg" xmlns:xlink="http://www.w3.org/1999/xlink" xmlns:svgjs="http://svgjs.com/svgjs" version="1.1" width="512" height="512" x="0" y="0" viewBox="0 0 392.8 392.8" style="enable-background:new 0 0 512 512" xml:space="preserve" class=""><g>
<g xmlns="http://www.w3.org/2000/svg">
	<polygon style="" points="196.4,0 292,49.2 388,98 292,147.2 196.4,196.4 100.8,147.2 4.8,98 100.8,49.2  " fill="#3faad7" data-original="#d9ac80" class=""/>
	<polygon style="" points="316,179.6 316,135.2 268,159.6 268,204 294.4,171.6  " fill="#a1d9df" data-original="#d7baa4" class=""/>
	<polygon style="" points="196.4,196.4 196.4,392.8 388,294.8 388,98 316,135.2 314.4,136 314.4,179.2 294.4,171.6    268,204 268,159.6  " fill="#3faad7" data-original="#a67e4f" class=""/>
	<polygon style="" points="196.4,392.8 196.4,196.4 100.8,147.2 4.8,98 4.8,294.8  " fill="#3faad7" data-original="#926e43" class=""/>
	<polygon style="" points="76.8,61.2 268,159.6 314.4,136 316,135.2 124.8,36.8 100.8,49.2  " fill="#a1d9df" data-original="#f2d3ba" class=""/>
</g>
<g xmlns="http://www.w3.org/2000/svg">
</g>
<g xmlns="http://www.w3.org/2000/svg">
</g>
<g xmlns="http://www.w3.org/2000/svg">
</g>
<g xmlns="http://www.w3.org/2000/svg">
</g>
<g xmlns="http://www.w3.org/2000/svg">
</g>
<g xmlns="http://www.w3.org/2000/svg">
</g>
<g xmlns="http://www.w3.org/2000/svg">
</g>
<g xmlns="http://www.w3.org/2000/svg">
</g>
<g xmlns="http://www.w3.org/2000/svg">
</g>
<g xmlns="http://www.w3.org/2000/svg">
</g>
<g xmlns="http://www.w3.org/2000/svg">
</g>
<g xmlns="http://www.w3.org/2000/svg">
</g>
<g xmlns="http://www.w3.org/2000/svg">
</g>
<g xmlns="http://www.w3.org/2000/svg">
</g>
<g xmlns="http://www.w3.org/2000/svg">
</g>
</g></svg>
